<svg xmlns="http://www.w3.org/2000/svg" xmlns:xlink="http://www.w3.org/1999/xlink" width="500" zoomAndPan="magnify" viewBox="0 0 375 374.999991" height="500" preserveAspectRatio="xMidYMid meet" version="1.0"><defs><g/><clipPath id="id1"><path d="M 118.484375 87.554688 L 257.234375 87.554688 L 257.234375 221.804688 L 118.484375 221.804688 Z M 118.484375 87.554688 " clip-rule="nonzero"/></clipPath><clipPath id="id2"><path d="M 173.296875 176 L 203 176 L 203 177 L 173.296875 177 Z M 173.296875 176 " clip-rule="nonzero"/></clipPath><clipPath id="id3"><path d="M 188.289062 191.171875 L 202.769531 176.074219 L 173.46875 176.074219 Z M 188.289062 191.171875 " clip-rule="nonzero"/></clipPath><clipPath id="id4"><path d="M 173.296875 177 L 203 177 L 203 178 L 173.296875 178 Z M 173.296875 177 " clip-rule="nonzero"/></clipPath><clipPath id="id5"><path d="M 188.289062 191.171875 L 202.769531 176.074219 L 173.46875 176.074219 Z M 188.289062 191.171875 " clip-rule="nonzero"/></clipPath><clipPath id="id6"><path d="M 173.296875 178 L 203 178 L 203 179 L 173.296875 179 Z M 173.296875 178 " clip-rule="nonzero"/></clipPath><clipPath id="id7"><path d="M 188.289062 191.171875 L 202.769531 176.074219 L 173.46875 176.074219 Z M 188.289062 191.171875 " clip-rule="nonzero"/></clipPath><clipPath id="id8"><path d="M 173.296875 179 L 203 179 L 203 180 L 173.296875 180 Z M 173.296875 179 " clip-rule="nonzero"/></clipPath><clipPath id="id9"><path d="M 188.289062 191.171875 L 202.769531 176.074219 L 173.46875 176.074219 Z M 188.289062 191.171875 " clip-rule="nonzero"/></clipPath><clipPath id="id10"><path d="M 173.296875 179 L 203 179 L 203 181 L 173.296875 181 Z M 173.296875 179 " clip-rule="nonzero"/></clipPath><clipPath id="id11"><path d="M 188.289062 191.171875 L 202.769531 176.074219 L 173.46875 176.074219 Z M 188.289062 191.171875 " clip-rule="nonzero"/></clipPath><clipPath id="id12"><path d="M 173.296875 180 L 203 180 L 203 181 L 173.296875 181 Z M 173.296875 180 " clip-rule="nonzero"/></clipPath><clipPath id="id13"><path d="M 188.289062 191.171875 L 202.769531 176.074219 L 173.46875 176.074219 Z M 188.289062 191.171875 " clip-rule="nonzero"/></clipPath><clipPath id="id14"><path d="M 173.296875 180 L 203 180 L 203 182 L 173.296875 182 Z M 173.296875 180 " clip-rule="nonzero"/></clipPath><clipPath id="id15"><path d="M 188.289062 191.171875 L 202.769531 176.074219 L 173.46875 176.074219 Z M 188.289062 191.171875 " clip-rule="nonzero"/></clipPath><clipPath id="id16"><path d="M 173.296875 181 L 203 181 L 203 182 L 173.296875 182 Z M 173.296875 181 " clip-rule="nonzero"/></clipPath><clipPath id="id17"><path d="M 188.289062 191.171875 L 202.769531 176.074219 L 173.46875 176.074219 Z M 188.289062 191.171875 " clip-rule="nonzero"/></clipPath><clipPath id="id18"><path d="M 173.296875 181 L 203 181 L 203 183 L 173.296875 183 Z M 173.296875 181 " clip-rule="nonzero"/></clipPath><clipPath id="id19"><path d="M 188.289062 191.171875 L 202.769531 176.074219 L 173.46875 176.074219 Z M 188.289062 191.171875 " clip-rule="nonzero"/></clipPath><clipPath id="id20"><path d="M 173.296875 182 L 203 182 L 203 183 L 173.296875 183 Z M 173.296875 182 " clip-rule="nonzero"/></clipPath><clipPath id="id21"><path d="M 188.289062 191.171875 L 202.769531 176.074219 L 173.46875 176.074219 Z M 188.289062 191.171875 " clip-rule="nonzero"/></clipPath><clipPath id="id22"><path d="M 173.296875 182 L 203 182 L 203 184 L 173.296875 184 Z M 173.296875 182 " clip-rule="nonzero"/></clipPath><clipPath id="id23"><path d="M 188.289062 191.171875 L 202.769531 176.074219 L 173.46875 176.074219 Z M 188.289062 191.171875 " clip-rule="nonzero"/></clipPath><clipPath id="id24"><path d="M 173.296875 183 L 203 183 L 203 184 L 173.296875 184 Z M 173.296875 183 " clip-rule="nonzero"/></clipPath><clipPath id="id25"><path d="M 188.289062 191.171875 L 202.769531 176.074219 L 173.46875 176.074219 Z M 188.289062 191.171875 " clip-rule="nonzero"/></clipPath><clipPath id="id26"><path d="M 173.296875 183 L 203 183 L 203 185 L 173.296875 185 Z M 173.296875 183 " clip-rule="nonzero"/></clipPath><clipPath id="id27"><path d="M 188.289062 191.171875 L 202.769531 176.074219 L 173.46875 176.074219 Z M 188.289062 191.171875 " clip-rule="nonzero"/></clipPath><clipPath id="id28"><path d="M 173.296875 184 L 203 184 L 203 185 L 173.296875 185 Z M 173.296875 184 " clip-rule="nonzero"/></clipPath><clipPath id="id29"><path d="M 188.289062 191.171875 L 202.769531 176.074219 L 173.46875 176.074219 Z M 188.289062 191.171875 " clip-rule="nonzero"/></clipPath><clipPath id="id30"><path d="M 173.296875 184 L 203 184 L 203 186 L 173.296875 186 Z M 173.296875 184 " clip-rule="nonzero"/></clipPath><clipPath id="id31"><path d="M 188.289062 191.171875 L 202.769531 176.074219 L 173.46875 176.074219 Z M 188.289062 191.171875 " clip-rule="nonzero"/></clipPath><clipPath id="id32"><path d="M 173.296875 185 L 203 185 L 203 186 L 173.296875 186 Z M 173.296875 185 " clip-rule="nonzero"/></clipPath><clipPath id="id33"><path d="M 188.289062 191.171875 L 202.769531 176.074219 L 173.46875 176.074219 Z M 188.289062 191.171875 " clip-rule="nonzero"/></clipPath><clipPath id="id34"><path d="M 173.296875 185 L 203 185 L 203 187 L 173.296875 187 Z M 173.296875 185 " clip-rule="nonzero"/></clipPath><clipPath id="id35"><path d="M 188.289062 191.171875 L 202.769531 176.074219 L 173.46875 176.074219 Z M 188.289062 191.171875 " clip-rule="nonzero"/></clipPath><clipPath id="id36"><path d="M 173.296875 186 L 203 186 L 203 187 L 173.296875 187 Z M 173.296875 186 " clip-rule="nonzero"/></clipPath><clipPath id="id37"><path d="M 188.289062 191.171875 L 202.769531 176.074219 L 173.46875 176.074219 Z M 188.289062 191.171875 " clip-rule="nonzero"/></clipPath><clipPath id="id38"><path d="M 173.296875 186 L 203 186 L 203 188 L 173.296875 188 Z M 173.296875 186 " clip-rule="nonzero"/></clipPath><clipPath id="id39"><path d="M 188.289062 191.171875 L 202.769531 176.074219 L 173.46875 176.074219 Z M 188.289062 191.171875 " clip-rule="nonzero"/></clipPath><clipPath id="id40"><path d="M 173.296875 187 L 203 187 L 203 188 L 173.296875 188 Z M 173.296875 187 " clip-rule="nonzero"/></clipPath><clipPath id="id41"><path d="M 188.289062 191.171875 L 202.769531 176.074219 L 173.46875 176.074219 Z M 188.289062 191.171875 " clip-rule="nonzero"/></clipPath><clipPath id="id42"><path d="M 173.296875 187 L 203 187 L 203 189 L 173.296875 189 Z M 173.296875 187 " clip-rule="nonzero"/></clipPath><clipPath id="id43"><path d="M 188.289062 191.171875 L 202.769531 176.074219 L 173.46875 176.074219 Z M 188.289062 191.171875 " clip-rule="nonzero"/></clipPath><clipPath id="id44"><path d="M 173.296875 188 L 203 188 L 203 189 L 173.296875 189 Z M 173.296875 188 " clip-rule="nonzero"/></clipPath><clipPath id="id45"><path d="M 188.289062 191.171875 L 202.769531 176.074219 L 173.46875 176.074219 Z M 188.289062 191.171875 " clip-rule="nonzero"/></clipPath><clipPath id="id46"><path d="M 173.296875 188 L 203 188 L 203 190 L 173.296875 190 Z M 173.296875 188 " clip-rule="nonzero"/></clipPath><clipPath id="id47"><path d="M 188.289062 191.171875 L 202.769531 176.074219 L 173.46875 176.074219 Z M 188.289062 191.171875 " clip-rule="nonzero"/></clipPath><clipPath id="id48"><path d="M 173.296875 189 L 203 189 L 203 190 L 173.296875 190 Z M 173.296875 189 " clip-rule="nonzero"/></clipPath><clipPath id="id49"><path d="M 188.289062 191.171875 L 202.769531 176.074219 L 173.46875 176.074219 Z M 188.289062 191.171875 " clip-rule="nonzero"/></clipPath><clipPath id="id50"><path d="M 173.296875 189 L 203 189 L 203 191 L 173.296875 191 Z M 173.296875 189 " clip-rule="nonzero"/></clipPath><clipPath id="id51"><path d="M 188.289062 191.171875 L 202.769531 176.074219 L 173.46875 176.074219 Z M 188.289062 191.171875 " clip-rule="nonzero"/></clipPath><clipPath id="id52"><path d="M 173.296875 190 L 203 190 L 203 191 L 173.296875 191 Z M 173.296875 190 " clip-rule="nonzero"/></clipPath><clipPath id="id53"><path d="M 188.289062 191.171875 L 202.769531 176.074219 L 173.46875 176.074219 Z M 188.289062 191.171875 " clip-rule="nonzero"/></clipPath><clipPath id="id54"><path d="M 173.296875 190 L 203 190 L 203 191.359375 L 173.296875 191.359375 Z M 173.296875 190 " clip-rule="nonzero"/></clipPath><clipPath id="id55"><path d="M 188.289062 191.171875 L 202.769531 176.074219 L 173.46875 176.074219 Z M 188.289062 191.171875 " clip-rule="nonzero"/></clipPath></defs><rect x="-37.5" width="450" fill="#ffffff" y="-37.499999" height="449.999989" fill-opacity="1"/><rect x="-37.5" width="450" fill="#0a131e" y="-37.499999" height="449.999989" fill-opacity="1"/><rect x="-37.5" width="450" fill="#ffffff" y="-37.499999" height="449.999989" fill-opacity="1"/><rect x="-37.5" width="450" fill="#0a131e" y="-37.499999" height="449.999989" fill-opacity="1"/><g clip-path="url(#id1)"><path fill="#f68712" d="M 187.863281 221.796875 L 118.523438 154.242188 L 147.140625 122.996094 L 147.277344 123.109375 L 134.582031 87.554688 L 173.664062 103.355469 L 187.859375 98.269531 L 202.058594 103.355469 L 241.144531 87.554688 L 228.449219 123.109375 L 228.585938 122.996094 L 257.203125 154.242188 Z M 130.621094 153.894531 L 187.863281 209.667969 L 245.105469 153.894531 L 227.789062 134.988281 L 209.550781 150.226562 L 226.457031 102.871094 L 202.25 112.65625 L 187.863281 107.503906 L 173.476562 112.65625 L 149.269531 102.871094 L 166.175781 150.226562 L 147.941406 134.988281 Z M 130.621094 153.894531 " fill-opacity="1" fill-rule="nonzero"/></g><path fill="#f7941d" d="M 188.289062 191.171875 L 202.769531 176.074219 L 173.46875 176.074219 Z M 188.289062 191.171875 " fill-opacity="1" fill-rule="nonzero"/><g clip-path="url(#id2)"><g clip-path="url(#id3)"><path fill="#ffffff" d="M 173.46875 176.074219 L 202.769531 176.074219 L 202.769531 176.152344 L 173.46875 176.152344 Z M 173.46875 176.074219 " fill-opacity="1" fill-rule="nonzero"/><path fill="#ffffff" d="M 173.46875 176.152344 L 202.769531 176.152344 L 202.769531 176.226562 L 173.46875 176.226562 Z M 173.46875 176.152344 " fill-opacity="1" fill-rule="nonzero"/><path fill="#ffffff" d="M 173.46875 176.226562 L 202.769531 176.226562 L 202.769531 176.304688 L 173.46875 176.304688 Z M 173.46875 176.226562 " fill-opacity="1" fill-rule="nonzero"/><path fill="#ffffff" d="M 173.46875 176.304688 L 202.769531 176.304688 L 202.769531 176.378906 L 173.46875 176.378906 Z M 173.46875 176.304688 " fill-opacity="1" fill-rule="nonzero"/><path fill="#ffffff" d="M 173.46875 176.382812 L 202.769531 176.382812 L 202.769531 176.460938 L 173.46875 176.460938 Z M 173.46875 176.382812 " fill-opacity="1" fill-rule="nonzero"/><path fill="#ffffff" d="M 173.46875 176.460938 L 202.769531 176.460938 L 202.769531 176.535156 L 173.46875 176.535156 Z M 173.46875 176.460938 " fill-opacity="1" fill-rule="nonzero"/><path fill="#ffffff" d="M 173.46875 176.535156 L 202.769531 176.535156 L 202.769531 176.613281 L 173.46875 176.613281 Z M 173.46875 176.535156 " fill-opacity="1" fill-rule="nonzero"/><path fill="#ffffff" d="M 173.46875 176.613281 L 202.769531 176.613281 L 202.769531 176.6875 L 173.46875 176.6875 Z M 173.46875 176.613281 " fill-opacity="1" fill-rule="nonzero"/><path fill="#ffffff" d="M 173.46875 176.691406 L 202.769531 176.691406 L 202.769531 176.765625 L 173.46875 176.765625 Z M 173.46875 176.691406 " fill-opacity="1" fill-rule="nonzero"/><path fill="#ffffff" d="M 173.46875 176.765625 L 202.769531 176.765625 L 202.769531 176.84375 L 173.46875 176.84375 Z M 173.46875 176.765625 " fill-opacity="1" fill-rule="nonzero"/><path fill="#ffffff" d="M 173.46875 176.84375 L 202.769531 176.84375 L 202.769531 176.917969 L 173.46875 176.917969 Z M 173.46875 176.84375 " fill-opacity="1" fill-rule="nonzero"/><path fill="#ffffff" d="M 173.46875 176.917969 L 202.769531 176.917969 L 202.769531 176.996094 L 173.46875 176.996094 Z M 173.46875 176.917969 " fill-opacity="1" fill-rule="nonzero"/></g></g><g clip-path="url(#id4)"><g clip-path="url(#id5)"><path fill="#ffffff" d="M 173.46875 177 L 202.769531 177 L 202.769531 177.074219 L 173.46875 177.074219 Z M 173.46875 177 " fill-opacity="1" fill-rule="nonzero"/><path fill="#ffffff" d="M 173.46875 177.074219 L 202.769531 177.074219 L 202.769531 177.152344 L 173.46875 177.152344 Z M 173.46875 177.074219 " fill-opacity="1" fill-rule="nonzero"/><path fill="#ffffff" d="M 173.46875 177.152344 L 202.769531 177.152344 L 202.769531 177.226562 L 173.46875 177.226562 Z M 173.46875 177.152344 " fill-opacity="1" fill-rule="nonzero"/><path fill="#ffffff" d="M 173.46875 177.226562 L 202.769531 177.226562 L 202.769531 177.304688 L 173.46875 177.304688 Z M 173.46875 177.226562 " fill-opacity="1" fill-rule="nonzero"/><path fill="#ffffff" d="M 173.46875 177.308594 L 202.769531 177.308594 L 202.769531 177.382812 L 173.46875 177.382812 Z M 173.46875 177.308594 " fill-opacity="1" fill-rule="nonzero"/><path fill="#ffffff" d="M 173.46875 177.382812 L 202.769531 177.382812 L 202.769531 177.460938 L 173.46875 177.460938 Z M 173.46875 177.382812 " fill-opacity="1" fill-rule="nonzero"/><path fill="#ffffff" d="M 173.46875 177.460938 L 202.769531 177.460938 L 202.769531 177.535156 L 173.46875 177.535156 Z M 173.46875 177.460938 " fill-opacity="1" fill-rule="nonzero"/><path fill="#ffffff" d="M 173.46875 177.539062 L 202.769531 177.539062 L 202.769531 177.613281 L 173.46875 177.613281 Z M 173.46875 177.539062 " fill-opacity="1" fill-rule="nonzero"/><path fill="#ffffff" d="M 173.46875 177.613281 L 202.769531 177.613281 L 202.769531 177.691406 L 173.46875 177.691406 Z M 173.46875 177.613281 " fill-opacity="1" fill-rule="nonzero"/><path fill="#ffffff" d="M 173.46875 177.691406 L 202.769531 177.691406 L 202.769531 177.765625 L 173.46875 177.765625 Z M 173.46875 177.691406 " fill-opacity="1" fill-rule="nonzero"/><path fill="#ffffff" d="M 173.46875 177.765625 L 202.769531 177.765625 L 202.769531 177.84375 L 173.46875 177.84375 Z M 173.46875 177.765625 " fill-opacity="1" fill-rule="nonzero"/><path fill="#ffffff" d="M 173.46875 177.847656 L 202.769531 177.847656 L 202.769531 177.921875 L 173.46875 177.921875 Z M 173.46875 177.847656 " fill-opacity="1" fill-rule="nonzero"/><path fill="#ffffff" d="M 173.46875 177.921875 L 202.769531 177.921875 L 202.769531 178 L 173.46875 178 Z M 173.46875 177.921875 " fill-opacity="1" fill-rule="nonzero"/></g></g><g clip-path="url(#id6)"><g clip-path="url(#id7)"><path fill="#ffffff" d="M 173.46875 178 L 202.769531 178 L 202.769531 178.074219 L 173.46875 178.074219 Z M 173.46875 178 " fill-opacity="1" fill-rule="nonzero"/><path fill="#ffffff" d="M 173.46875 178.074219 L 202.769531 178.074219 L 202.769531 178.152344 L 173.46875 178.152344 Z M 173.46875 178.074219 " fill-opacity="1" fill-rule="nonzero"/><path fill="#ffffff" d="M 173.46875 178.15625 L 202.769531 178.15625 L 202.769531 178.230469 L 173.46875 178.230469 Z M 173.46875 178.15625 " fill-opacity="1" fill-rule="nonzero"/><path fill="#ffffff" d="M 173.46875 178.230469 L 202.769531 178.230469 L 202.769531 178.308594 L 173.46875 178.308594 Z M 173.46875 178.230469 " fill-opacity="1" fill-rule="nonzero"/><path fill="#ffffff" d="M 173.46875 178.308594 L 202.769531 178.308594 L 202.769531 178.382812 L 173.46875 178.382812 Z M 173.46875 178.308594 " fill-opacity="1" fill-rule="nonzero"/><path fill="#ffffff" d="M 173.46875 178.382812 L 202.769531 178.382812 L 202.769531 178.460938 L 173.46875 178.460938 Z M 173.46875 178.382812 " fill-opacity="1" fill-rule="nonzero"/><path fill="#ffffff" d="M 173.46875 178.460938 L 202.769531 178.460938 L 202.769531 178.539062 L 173.46875 178.539062 Z M 173.46875 178.460938 " fill-opacity="1" fill-rule="nonzero"/><path fill="#ffffff" d="M 173.46875 178.539062 L 202.769531 178.539062 L 202.769531 178.613281 L 173.46875 178.613281 Z M 173.46875 178.539062 " fill-opacity="1" fill-rule="nonzero"/><path fill="#ffffff" d="M 173.46875 178.613281 L 202.769531 178.613281 L 202.769531 178.691406 L 173.46875 178.691406 Z M 173.46875 178.613281 " fill-opacity="1" fill-rule="nonzero"/><path fill="#ffffff" d="M 173.46875 178.691406 L 202.769531 178.691406 L 202.769531 178.765625 L 173.46875 178.765625 Z M 173.46875 178.691406 " fill-opacity="1" fill-rule="nonzero"/><path fill="#ffffff" d="M 173.46875 178.769531 L 202.769531 178.769531 L 202.769531 178.847656 L 173.46875 178.847656 Z M 173.46875 178.769531 " fill-opacity="1" fill-rule="nonzero"/><path fill="#ffffff" d="M 173.46875 178.847656 L 202.769531 178.847656 L 202.769531 178.921875 L 173.46875 178.921875 Z M 173.46875 178.847656 " fill-opacity="1" fill-rule="nonzero"/><path fill="#ffffff" d="M 173.46875 178.921875 L 202.769531 178.921875 L 202.769531 179 L 173.46875 179 Z M 173.46875 178.921875 " fill-opacity="1" fill-rule="nonzero"/></g></g><g clip-path="url(#id8)"><g clip-path="url(#id9)"><path fill="#ffffff" d="M 173.46875 179.003906 L 202.769531 179.003906 L 202.769531 179.078125 L 173.46875 179.078125 Z M 173.46875 179.003906 " fill-opacity="1" fill-rule="nonzero"/><path fill="#ffffff" d="M 173.46875 179.078125 L 202.769531 179.078125 L 202.769531 179.15625 L 173.46875 179.15625 Z M 173.46875 179.078125 " fill-opacity="1" fill-rule="nonzero"/><path fill="#ffffff" d="M 173.46875 179.15625 L 202.769531 179.15625 L 202.769531 179.230469 L 173.46875 179.230469 Z M 173.46875 179.15625 " fill-opacity="1" fill-rule="nonzero"/><path fill="#ffffff" d="M 173.46875 179.230469 L 202.769531 179.230469 L 202.769531 179.308594 L 173.46875 179.308594 Z M 173.46875 179.230469 " fill-opacity="1" fill-rule="nonzero"/><path fill="#ffffff" d="M 173.46875 179.308594 L 202.769531 179.308594 L 202.769531 179.386719 L 173.46875 179.386719 Z M 173.46875 179.308594 " fill-opacity="1" fill-rule="nonzero"/><path fill="#ffffff" d="M 173.46875 179.386719 L 202.769531 179.386719 L 202.769531 179.460938 L 173.46875 179.460938 Z M 173.46875 179.386719 " fill-opacity="1" fill-rule="nonzero"/><path fill="#ffffff" d="M 173.46875 179.460938 L 202.769531 179.460938 L 202.769531 179.539062 L 173.46875 179.539062 Z M 173.46875 179.460938 " fill-opacity="1" fill-rule="nonzero"/><path fill="#ffffff" d="M 173.46875 179.539062 L 202.769531 179.539062 L 202.769531 179.613281 L 173.46875 179.613281 Z M 173.46875 179.539062 " fill-opacity="1" fill-rule="nonzero"/><path fill="#ffffff" d="M 173.46875 179.617188 L 202.769531 179.617188 L 202.769531 179.695312 L 173.46875 179.695312 Z M 173.46875 179.617188 " fill-opacity="1" fill-rule="nonzero"/><path fill="#ffffff" d="M 173.46875 179.695312 L 202.769531 179.695312 L 202.769531 179.769531 L 173.46875 179.769531 Z M 173.46875 179.695312 " fill-opacity="1" fill-rule="nonzero"/><path fill="#ffffff" d="M 173.46875 179.769531 L 202.769531 179.769531 L 202.769531 179.847656 L 173.46875 179.847656 Z M 173.46875 179.769531 " fill-opacity="1" fill-rule="nonzero"/><path fill="#ffffff" d="M 173.46875 179.847656 L 202.769531 179.847656 L 202.769531 179.921875 L 173.46875 179.921875 Z M 173.46875 179.847656 " fill-opacity="1" fill-rule="nonzero"/></g></g><g clip-path="url(#id10)"><g clip-path="url(#id11)"><path fill="#ffffff" d="M 173.46875 179.925781 L 202.769531 179.925781 L 202.769531 180.003906 L 173.46875 180.003906 Z M 173.46875 179.925781 " fill-opacity="1" fill-rule="nonzero"/></g></g><g clip-path="url(#id12)"><g clip-path="url(#id13)"><path fill="#ffffff" d="M 173.46875 180.003906 L 202.769531 180.003906 L 202.769531 180.078125 L 173.46875 180.078125 Z M 173.46875 180.003906 " fill-opacity="1" fill-rule="nonzero"/><path fill="#ffffff" d="M 173.46875 180.078125 L 202.769531 180.078125 L 202.769531 180.15625 L 173.46875 180.15625 Z M 173.46875 180.078125 " fill-opacity="1" fill-rule="nonzero"/><path fill="#ffffff" d="M 173.46875 180.15625 L 202.769531 180.15625 L 202.769531 180.234375 L 173.46875 180.234375 Z M 173.46875 180.15625 " fill-opacity="1" fill-rule="nonzero"/><path fill="#ffffff" d="M 173.46875 180.234375 L 202.769531 180.234375 L 202.769531 180.308594 L 173.46875 180.308594 Z M 173.46875 180.234375 " fill-opacity="1" fill-rule="nonzero"/><path fill="#ffffff" d="M 173.46875 180.308594 L 202.769531 180.308594 L 202.769531 180.386719 L 173.46875 180.386719 Z M 173.46875 180.308594 " fill-opacity="1" fill-rule="nonzero"/><path fill="#ffffff" d="M 173.46875 180.386719 L 202.769531 180.386719 L 202.769531 180.460938 L 173.46875 180.460938 Z M 173.46875 180.386719 " fill-opacity="1" fill-rule="nonzero"/><path fill="#ffffff" d="M 173.46875 180.464844 L 202.769531 180.464844 L 202.769531 180.542969 L 173.46875 180.542969 Z M 173.46875 180.464844 " fill-opacity="1" fill-rule="nonzero"/><path fill="#ffffff" d="M 173.46875 180.542969 L 202.769531 180.542969 L 202.769531 180.617188 L 173.46875 180.617188 Z M 173.46875 180.542969 " fill-opacity="1" fill-rule="nonzero"/><path fill="#ffffff" d="M 173.46875 180.617188 L 202.769531 180.617188 L 202.769531 180.695312 L 173.46875 180.695312 Z M 173.46875 180.617188 " fill-opacity="1" fill-rule="nonzero"/><path fill="#ffffff" d="M 173.46875 180.695312 L 202.769531 180.695312 L 202.769531 180.769531 L 173.46875 180.769531 Z M 173.46875 180.695312 " fill-opacity="1" fill-rule="nonzero"/><path fill="#ffffff" d="M 173.46875 180.773438 L 202.769531 180.773438 L 202.769531 180.851562 L 173.46875 180.851562 Z M 173.46875 180.773438 " fill-opacity="1" fill-rule="nonzero"/><path fill="#ffffff" d="M 173.46875 180.851562 L 202.769531 180.851562 L 202.769531 180.925781 L 173.46875 180.925781 Z M 173.46875 180.851562 " fill-opacity="1" fill-rule="nonzero"/></g></g><g clip-path="url(#id14)"><g clip-path="url(#id15)"><path fill="#ffffff" d="M 173.46875 180.925781 L 202.769531 180.925781 L 202.769531 181.003906 L 173.46875 181.003906 Z M 173.46875 180.925781 " fill-opacity="1" fill-rule="nonzero"/></g></g><g clip-path="url(#id16)"><g clip-path="url(#id17)"><path fill="#ffffff" d="M 173.46875 181.003906 L 202.769531 181.003906 L 202.769531 181.078125 L 173.46875 181.078125 Z M 173.46875 181.003906 " fill-opacity="1" fill-rule="nonzero"/><path fill="#ffffff" d="M 173.46875 181.082031 L 202.769531 181.082031 L 202.769531 181.15625 L 173.46875 181.15625 Z M 173.46875 181.082031 " fill-opacity="1" fill-rule="nonzero"/><path fill="#ffffff" d="M 173.46875 181.15625 L 202.769531 181.15625 L 202.769531 181.234375 L 173.46875 181.234375 Z M 173.46875 181.15625 " fill-opacity="1" fill-rule="nonzero"/><path fill="#ffffff" d="M 173.46875 181.234375 L 202.769531 181.234375 L 202.769531 181.308594 L 173.46875 181.308594 Z M 173.46875 181.234375 " fill-opacity="1" fill-rule="nonzero"/><path fill="#ffffff" d="M 173.46875 181.308594 L 202.769531 181.308594 L 202.769531 181.386719 L 173.46875 181.386719 Z M 173.46875 181.308594 " fill-opacity="1" fill-rule="nonzero"/><path fill="#ffffff" d="M 173.46875 181.390625 L 202.769531 181.390625 L 202.769531 181.464844 L 173.46875 181.464844 Z M 173.46875 181.390625 " fill-opacity="1" fill-rule="nonzero"/><path fill="#ffffff" d="M 173.46875 181.464844 L 202.769531 181.464844 L 202.769531 181.542969 L 173.46875 181.542969 Z M 173.46875 181.464844 " fill-opacity="1" fill-rule="nonzero"/><path fill="#ffffff" d="M 173.46875 181.542969 L 202.769531 181.542969 L 202.769531 181.617188 L 173.46875 181.617188 Z M 173.46875 181.542969 " fill-opacity="1" fill-rule="nonzero"/><path fill="#ffffff" d="M 173.46875 181.621094 L 202.769531 181.621094 L 202.769531 181.695312 L 173.46875 181.695312 Z M 173.46875 181.621094 " fill-opacity="1" fill-rule="nonzero"/><path fill="#ffffff" d="M 173.46875 181.695312 L 202.769531 181.695312 L 202.769531 181.773438 L 173.46875 181.773438 Z M 173.46875 181.695312 " fill-opacity="1" fill-rule="nonzero"/><path fill="#ffffff" d="M 173.46875 181.773438 L 202.769531 181.773438 L 202.769531 181.851562 L 173.46875 181.851562 Z M 173.46875 181.773438 " fill-opacity="1" fill-rule="nonzero"/><path fill="#ffffff" d="M 173.46875 181.851562 L 202.769531 181.851562 L 202.769531 181.925781 L 173.46875 181.925781 Z M 173.46875 181.851562 " fill-opacity="1" fill-rule="nonzero"/></g></g><g clip-path="url(#id18)"><g clip-path="url(#id19)"><path fill="#ffffff" d="M 173.46875 181.929688 L 202.769531 181.929688 L 202.769531 182.003906 L 173.46875 182.003906 Z M 173.46875 181.929688 " fill-opacity="1" fill-rule="nonzero"/></g></g><g clip-path="url(#id20)"><g clip-path="url(#id21)"><path fill="#ffffff" d="M 173.46875 182.003906 L 202.769531 182.003906 L 202.769531 182.082031 L 173.46875 182.082031 Z M 173.46875 182.003906 " fill-opacity="1" fill-rule="nonzero"/><path fill="#ffffff" d="M 173.46875 182.082031 L 202.769531 182.082031 L 202.769531 182.15625 L 173.46875 182.15625 Z M 173.46875 182.082031 " fill-opacity="1" fill-rule="nonzero"/><path fill="#ffffff" d="M 173.46875 182.15625 L 202.769531 182.15625 L 202.769531 182.234375 L 173.46875 182.234375 Z M 173.46875 182.15625 " fill-opacity="1" fill-rule="nonzero"/><path fill="#ffffff" d="M 173.46875 182.238281 L 202.769531 182.238281 L 202.769531 182.3125 L 173.46875 182.3125 Z M 173.46875 182.238281 " fill-opacity="1" fill-rule="nonzero"/><path fill="#ffffff" d="M 173.46875 182.3125 L 202.769531 182.3125 L 202.769531 182.390625 L 173.46875 182.390625 Z M 173.46875 182.3125 " fill-opacity="1" fill-rule="nonzero"/><path fill="#ffffff" d="M 173.46875 182.390625 L 202.769531 182.390625 L 202.769531 182.464844 L 173.46875 182.464844 Z M 173.46875 182.390625 " fill-opacity="1" fill-rule="nonzero"/><path fill="#ffffff" d="M 173.46875 182.464844 L 202.769531 182.464844 L 202.769531 182.542969 L 173.46875 182.542969 Z M 173.46875 182.464844 " fill-opacity="1" fill-rule="nonzero"/><path fill="#ffffff" d="M 173.46875 182.542969 L 202.769531 182.542969 L 202.769531 182.621094 L 173.46875 182.621094 Z M 173.46875 182.542969 " fill-opacity="1" fill-rule="nonzero"/><path fill="#ffffff" d="M 173.46875 182.621094 L 202.769531 182.621094 L 202.769531 182.695312 L 173.46875 182.695312 Z M 173.46875 182.621094 " fill-opacity="1" fill-rule="nonzero"/><path fill="#ffffff" d="M 173.46875 182.695312 L 202.769531 182.695312 L 202.769531 182.773438 L 173.46875 182.773438 Z M 173.46875 182.695312 " fill-opacity="1" fill-rule="nonzero"/><path fill="#ffffff" d="M 173.46875 182.773438 L 202.769531 182.773438 L 202.769531 182.847656 L 173.46875 182.847656 Z M 173.46875 182.773438 " fill-opacity="1" fill-rule="nonzero"/><path fill="#ffffff" d="M 173.46875 182.851562 L 202.769531 182.851562 L 202.769531 182.929688 L 173.46875 182.929688 Z M 173.46875 182.851562 " fill-opacity="1" fill-rule="nonzero"/></g></g><g clip-path="url(#id22)"><g clip-path="url(#id23)"><path fill="#ffffff" d="M 173.46875 182.929688 L 202.769531 182.929688 L 202.769531 183.003906 L 173.46875 183.003906 Z M 173.46875 182.929688 " fill-opacity="1" fill-rule="nonzero"/></g></g><g clip-path="url(#id24)"><g clip-path="url(#id25)"><path fill="#ffffff" d="M 173.46875 183.003906 L 202.769531 183.003906 L 202.769531 183.082031 L 173.46875 183.082031 Z M 173.46875 183.003906 " fill-opacity="1" fill-rule="nonzero"/><path fill="#ffffff" d="M 173.46875 183.085938 L 202.769531 183.085938 L 202.769531 183.160156 L 173.46875 183.160156 Z M 173.46875 183.085938 " fill-opacity="1" fill-rule="nonzero"/><path fill="#ffffff" d="M 173.46875 183.160156 L 202.769531 183.160156 L 202.769531 183.238281 L 173.46875 183.238281 Z M 173.46875 183.160156 " fill-opacity="1" fill-rule="nonzero"/><path fill="#ffffff" d="M 173.46875 183.238281 L 202.769531 183.238281 L 202.769531 183.3125 L 173.46875 183.3125 Z M 173.46875 183.238281 " fill-opacity="1" fill-rule="nonzero"/><path fill="#ffffff" d="M 173.46875 183.3125 L 202.769531 183.3125 L 202.769531 183.390625 L 173.46875 183.390625 Z M 173.46875 183.3125 " fill-opacity="1" fill-rule="nonzero"/><path fill="#ffffff" d="M 173.46875 183.390625 L 202.769531 183.390625 L 202.769531 183.46875 L 173.46875 183.46875 Z M 173.46875 183.390625 " fill-opacity="1" fill-rule="nonzero"/><path fill="#ffffff" d="M 173.46875 183.46875 L 202.769531 183.46875 L 202.769531 183.542969 L 173.46875 183.542969 Z M 173.46875 183.46875 " fill-opacity="1" fill-rule="nonzero"/><path fill="#ffffff" d="M 173.46875 183.542969 L 202.769531 183.542969 L 202.769531 183.621094 L 173.46875 183.621094 Z M 173.46875 183.542969 " fill-opacity="1" fill-rule="nonzero"/><path fill="#ffffff" d="M 173.46875 183.621094 L 202.769531 183.621094 L 202.769531 183.882812 L 173.46875 183.882812 Z M 173.46875 183.621094 " fill-opacity="1" fill-rule="nonzero"/></g></g><g clip-path="url(#id26)"><g clip-path="url(#id27)"><path fill="#ffffff" d="M 173.46875 183.882812 L 202.769531 183.882812 L 202.769531 184.140625 L 173.46875 184.140625 Z M 173.46875 183.882812 " fill-opacity="1" fill-rule="nonzero"/></g></g><g clip-path="url(#id28)"><g clip-path="url(#id29)"><path fill="#ffffff" d="M 173.46875 184.140625 L 202.769531 184.140625 L 202.769531 184.402344 L 173.46875 184.402344 Z M 173.46875 184.140625 " fill-opacity="1" fill-rule="nonzero"/><path fill="#ffffff" d="M 173.46875 184.402344 L 202.769531 184.402344 L 202.769531 184.664062 L 173.46875 184.664062 Z M 173.46875 184.402344 " fill-opacity="1" fill-rule="nonzero"/><path fill="#ffffff" d="M 173.46875 184.664062 L 202.769531 184.664062 L 202.769531 184.921875 L 173.46875 184.921875 Z M 173.46875 184.664062 " fill-opacity="1" fill-rule="nonzero"/></g></g><g clip-path="url(#id30)"><g clip-path="url(#id31)"><path fill="#ffffff" d="M 173.46875 184.921875 L 202.769531 184.921875 L 202.769531 185.183594 L 173.46875 185.183594 Z M 173.46875 184.921875 " fill-opacity="1" fill-rule="nonzero"/></g></g><g clip-path="url(#id32)"><g clip-path="url(#id33)"><path fill="#ffffff" d="M 173.46875 185.183594 L 202.769531 185.183594 L 202.769531 185.441406 L 173.46875 185.441406 Z M 173.46875 185.183594 " fill-opacity="1" fill-rule="nonzero"/><path fill="#ffffff" d="M 173.46875 185.441406 L 202.769531 185.441406 L 202.769531 185.703125 L 173.46875 185.703125 Z M 173.46875 185.441406 " fill-opacity="1" fill-rule="nonzero"/><path fill="#ffffff" d="M 173.46875 185.703125 L 202.769531 185.703125 L 202.769531 185.964844 L 173.46875 185.964844 Z M 173.46875 185.703125 " fill-opacity="1" fill-rule="nonzero"/></g></g><g clip-path="url(#id34)"><g clip-path="url(#id35)"><path fill="#ffffff" d="M 173.46875 185.964844 L 202.769531 185.964844 L 202.769531 186.222656 L 173.46875 186.222656 Z M 173.46875 185.964844 " fill-opacity="1" fill-rule="nonzero"/></g></g><g clip-path="url(#id36)"><g clip-path="url(#id37)"><path fill="#ffffff" d="M 173.46875 186.222656 L 202.769531 186.222656 L 202.769531 186.484375 L 173.46875 186.484375 Z M 173.46875 186.222656 " fill-opacity="1" fill-rule="nonzero"/><path fill="#ffffff" d="M 173.46875 186.484375 L 202.769531 186.484375 L 202.769531 186.746094 L 173.46875 186.746094 Z M 173.46875 186.484375 " fill-opacity="1" fill-rule="nonzero"/></g></g><g clip-path="url(#id38)"><g clip-path="url(#id39)"><path fill="#ffffff" d="M 173.46875 186.746094 L 202.769531 186.746094 L 202.769531 187.003906 L 173.46875 187.003906 Z M 173.46875 186.746094 " fill-opacity="1" fill-rule="nonzero"/></g></g><g clip-path="url(#id40)"><g clip-path="url(#id41)"><path fill="#ffffff" d="M 173.46875 187.003906 L 202.769531 187.003906 L 202.769531 187.265625 L 173.46875 187.265625 Z M 173.46875 187.003906 " fill-opacity="1" fill-rule="nonzero"/><path fill="#ffffff" d="M 173.46875 187.265625 L 202.769531 187.265625 L 202.769531 187.527344 L 173.46875 187.527344 Z M 173.46875 187.265625 " fill-opacity="1" fill-rule="nonzero"/><path fill="#ffffff" d="M 173.46875 187.527344 L 202.769531 187.527344 L 202.769531 187.785156 L 173.46875 187.785156 Z M 173.46875 187.527344 " fill-opacity="1" fill-rule="nonzero"/></g></g><g clip-path="url(#id42)"><g clip-path="url(#id43)"><path fill="#ffffff" d="M 173.46875 187.785156 L 202.769531 187.785156 L 202.769531 188.046875 L 173.46875 188.046875 Z M 173.46875 187.785156 " fill-opacity="1" fill-rule="nonzero"/></g></g><g clip-path="url(#id44)"><g clip-path="url(#id45)"><path fill="#ffffff" d="M 173.46875 188.046875 L 202.769531 188.046875 L 202.769531 188.304688 L 173.46875 188.304688 Z M 173.46875 188.046875 " fill-opacity="1" fill-rule="nonzero"/><path fill="#ffffff" d="M 173.46875 188.304688 L 202.769531 188.304688 L 202.769531 188.566406 L 173.46875 188.566406 Z M 173.46875 188.304688 " fill-opacity="1" fill-rule="nonzero"/><path fill="#ffffff" d="M 173.46875 188.566406 L 202.769531 188.566406 L 202.769531 188.828125 L 173.46875 188.828125 Z M 173.46875 188.566406 " fill-opacity="1" fill-rule="nonzero"/></g></g><g clip-path="url(#id46)"><g clip-path="url(#id47)"><path fill="#ffffff" d="M 173.46875 188.828125 L 202.769531 188.828125 L 202.769531 189.085938 L 173.46875 189.085938 Z M 173.46875 188.828125 " fill-opacity="1" fill-rule="nonzero"/></g></g><g clip-path="url(#id48)"><g clip-path="url(#id49)"><path fill="#ffffff" d="M 173.46875 189.085938 L 202.769531 189.085938 L 202.769531 189.347656 L 173.46875 189.347656 Z M 173.46875 189.085938 " fill-opacity="1" fill-rule="nonzero"/><path fill="#ffffff" d="M 173.46875 189.347656 L 202.769531 189.347656 L 202.769531 189.609375 L 173.46875 189.609375 Z M 173.46875 189.347656 " fill-opacity="1" fill-rule="nonzero"/><path fill="#ffffff" d="M 173.46875 189.609375 L 202.769531 189.609375 L 202.769531 189.867188 L 173.46875 189.867188 Z M 173.46875 189.609375 " fill-opacity="1" fill-rule="nonzero"/></g></g><g clip-path="url(#id50)"><g clip-path="url(#id51)"><path fill="#ffffff" d="M 173.46875 189.867188 L 202.769531 189.867188 L 202.769531 190.128906 L 173.46875 190.128906 Z M 173.46875 189.867188 " fill-opacity="1" fill-rule="nonzero"/></g></g><g clip-path="url(#id52)"><g clip-path="url(#id53)"><path fill="#ffffff" d="M 173.46875 190.128906 L 202.769531 190.128906 L 202.769531 190.390625 L 173.46875 190.390625 Z M 173.46875 190.128906 " fill-opacity="1" fill-rule="nonzero"/><path fill="#ffffff" d="M 173.46875 190.390625 L 202.769531 190.390625 L 202.769531 190.648438 L 173.46875 190.648438 Z M 173.46875 190.390625 " fill-opacity="1" fill-rule="nonzero"/><path fill="#ffffff" d="M 173.46875 190.648438 L 202.769531 190.648438 L 202.769531 190.910156 L 173.46875 190.910156 Z M 173.46875 190.648438 " fill-opacity="1" fill-rule="nonzero"/></g></g><g clip-path="url(#id54)"><g clip-path="url(#id55)"><path fill="#ffffff" d="M 173.46875 190.910156 L 202.769531 190.910156 L 202.769531 191.171875 L 173.46875 191.171875 Z M 173.46875 190.910156 " fill-opacity="1" fill-rule="nonzero"/></g></g><g fill="#f68712" fill-opacity="1"><g transform="translate(128.062496, 284.445977)"><g><path d="M 8.546875 -8.90625 L 5.21875 -8.90625 L 5.21875 0 L 3.453125 0 L 3.453125 -8.90625 L 0.140625 -8.90625 L 0.140625 -10.5 L 8.546875 -10.5 Z M 8.546875 -8.90625 "/></g></g></g><g fill="#f68712" fill-opacity="1"><g transform="translate(138.247485, 284.445977)"><g><path d="M 8.875 -8.90625 L 3.15625 -8.90625 L 3.15625 -6.078125 L 8.28125 -6.078125 L 8.28125 -4.484375 L 3.15625 -4.484375 L 3.15625 -1.59375 L 9.0625 -1.59375 L 9.0625 0 L 1.375 0 L 1.375 -10.5 L 8.875 -10.5 Z M 8.875 -8.90625 "/></g></g></g><g fill="#f68712" fill-opacity="1"><g transform="translate(149.587481, 284.445977)"><g><path d="M 6.03125 -10.546875 C 6.769531 -10.546875 7.488281 -10.398438 8.1875 -10.109375 C 8.894531 -9.828125 9.503906 -9.429688 10.015625 -8.921875 L 8.984375 -7.640625 C 8.609375 -8.046875 8.160156 -8.367188 7.640625 -8.609375 C 7.117188 -8.847656 6.59375 -8.96875 6.0625 -8.96875 C 5.007812 -8.96875 4.117188 -8.609375 3.390625 -7.890625 C 2.671875 -7.179688 2.3125 -6.3125 2.3125 -5.28125 C 2.3125 -4.238281 2.671875 -3.359375 3.390625 -2.640625 C 4.117188 -1.929688 5.007812 -1.578125 6.0625 -1.578125 C 7.144531 -1.578125 8.117188 -1.988281 8.984375 -2.8125 L 10.03125 -1.65625 C 9.488281 -1.125 8.859375 -0.703125 8.140625 -0.390625 C 7.421875 -0.078125 6.695312 0.078125 5.96875 0.078125 C 4.425781 0.078125 3.128906 -0.429688 2.078125 -1.453125 C 1.035156 -2.484375 0.515625 -3.753906 0.515625 -5.265625 C 0.515625 -6.753906 1.046875 -8.003906 2.109375 -9.015625 C 3.171875 -10.035156 4.476562 -10.546875 6.03125 -10.546875 Z M 6.03125 -10.546875 "/></g></g></g><g fill="#f68712" fill-opacity="1"><g transform="translate(161.542471, 284.445977)"><g><path d="M 10.484375 0 L 8.71875 0 L 8.71875 -4.34375 L 3.15625 -4.34375 L 3.15625 0 L 1.375 0 L 1.375 -10.5 L 3.15625 -10.5 L 3.15625 -5.9375 L 8.71875 -5.9375 L 8.71875 -10.5 L 10.484375 -10.5 Z M 10.484375 0 "/></g></g></g><g fill="#f68712" fill-opacity="1"><g transform="translate(174.907464, 284.445977)"><g><path d="M 10.484375 0 L 8.75 0 L 3.15625 -7.53125 L 3.15625 0 L 1.375 0 L 1.375 -10.5 L 3.125 -10.5 L 8.75 -2.953125 L 8.75 -10.5 L 10.484375 -10.5 Z M 10.484375 0 "/></g></g></g><g fill="#f68712" fill-opacity="1"><g transform="translate(188.287449, 284.445977)"><g><path d="M 2.109375 -9.015625 C 3.179688 -10.035156 4.503906 -10.546875 6.078125 -10.546875 C 7.648438 -10.546875 8.96875 -10.035156 10.03125 -9.015625 C 11.101562 -8.003906 11.640625 -6.75 11.640625 -5.25 C 11.640625 -3.75 11.101562 -2.484375 10.03125 -1.453125 C 8.96875 -0.429688 7.648438 0.078125 6.078125 0.078125 C 4.503906 0.078125 3.179688 -0.429688 2.109375 -1.453125 C 1.046875 -2.484375 0.515625 -3.75 0.515625 -5.25 C 0.515625 -6.75 1.046875 -8.003906 2.109375 -9.015625 Z M 6.09375 -8.953125 C 5.050781 -8.953125 4.160156 -8.59375 3.421875 -7.875 C 2.679688 -7.164062 2.3125 -6.289062 2.3125 -5.25 C 2.3125 -4.207031 2.679688 -3.320312 3.421875 -2.59375 C 4.171875 -1.875 5.0625 -1.515625 6.09375 -1.515625 C 7.125 -1.515625 8.003906 -1.875 8.734375 -2.59375 C 9.460938 -3.320312 9.828125 -4.207031 9.828125 -5.25 C 9.828125 -6.289062 9.460938 -7.164062 8.734375 -7.875 C 8.003906 -8.59375 7.125 -8.953125 6.09375 -8.953125 Z M 6.09375 -8.953125 "/></g></g></g><g fill="#f68712" fill-opacity="1"><g transform="translate(201.937434, 284.445977)"><g><path d="M 3.15625 -1.609375 L 7.6875 -1.609375 L 7.6875 0 L 1.375 0 L 1.375 -10.5 L 3.15625 -10.5 Z M 3.15625 -1.609375 "/></g></g></g><g fill="#f68712" fill-opacity="1"><g transform="translate(211.447428, 284.445977)"><g><path d="M 2.109375 -9.015625 C 3.179688 -10.035156 4.503906 -10.546875 6.078125 -10.546875 C 7.648438 -10.546875 8.96875 -10.035156 10.03125 -9.015625 C 11.101562 -8.003906 11.640625 -6.75 11.640625 -5.25 C 11.640625 -3.75 11.101562 -2.484375 10.03125 -1.453125 C 8.96875 -0.429688 7.648438 0.078125 6.078125 0.078125 C 4.503906 0.078125 3.179688 -0.429688 2.109375 -1.453125 C 1.046875 -2.484375 0.515625 -3.75 0.515625 -5.25 C 0.515625 -6.75 1.046875 -8.003906 2.109375 -9.015625 Z M 6.09375 -8.953125 C 5.050781 -8.953125 4.160156 -8.59375 3.421875 -7.875 C 2.679688 -7.164062 2.3125 -6.289062 2.3125 -5.25 C 2.3125 -4.207031 2.679688 -3.320312 3.421875 -2.59375 C 4.171875 -1.875 5.0625 -1.515625 6.09375 -1.515625 C 7.125 -1.515625 8.003906 -1.875 8.734375 -2.59375 C 9.460938 -3.320312 9.828125 -4.207031 9.828125 -5.25 C 9.828125 -6.289062 9.460938 -7.164062 8.734375 -7.875 C 8.003906 -8.59375 7.125 -8.953125 6.09375 -8.953125 Z M 6.09375 -8.953125 "/></g></g></g><g fill="#f68712" fill-opacity="1"><g transform="translate(225.097414, 284.445977)"><g><path d="M 8.5625 -5.15625 L 10.109375 -5.15625 L 10.109375 -1.296875 C 9.566406 -0.878906 8.925781 -0.546875 8.1875 -0.296875 C 7.457031 -0.046875 6.738281 0.078125 6.03125 0.078125 C 4.476562 0.078125 3.171875 -0.429688 2.109375 -1.453125 C 1.046875 -2.484375 0.515625 -3.75 0.515625 -5.25 C 0.515625 -6.75 1.050781 -8.003906 2.125 -9.015625 C 3.207031 -10.035156 4.546875 -10.546875 6.140625 -10.546875 C 6.878906 -10.546875 7.601562 -10.410156 8.3125 -10.140625 C 9.03125 -9.878906 9.648438 -9.523438 10.171875 -9.078125 L 9.171875 -7.765625 C 8.304688 -8.566406 7.296875 -8.96875 6.140625 -8.96875 C 5.066406 -8.96875 4.160156 -8.609375 3.421875 -7.890625 C 2.679688 -7.171875 2.3125 -6.289062 2.3125 -5.25 C 2.3125 -4.195312 2.679688 -3.3125 3.421875 -2.59375 C 4.171875 -1.875 5.082031 -1.515625 6.15625 -1.515625 C 6.957031 -1.515625 7.757812 -1.753906 8.5625 -2.234375 Z M 8.5625 -5.15625 "/></g></g></g><g fill="#f68712" fill-opacity="1"><g transform="translate(237.832398, 284.445977)"><g><path d="M 5.6875 -3.5 L 5.6875 0 L 3.9375 0 L 3.9375 -3.4375 L 0.015625 -10.5 L 1.796875 -10.5 L 4.796875 -5.390625 L 7.734375 -10.5 L 9.546875 -10.5 Z M 5.6875 -3.5 "/></g></g></g><g fill="#ffffff" fill-opacity="1"><g transform="translate(112.933591, 263.44595)"><g><path d="M 19.203125 -17.578125 L 7.984375 -4.234375 L 19.375 -4.234375 L 19.375 0 L 0.84375 0 L 0.84375 -3.421875 L 12.09375 -16.765625 L 1.234375 -16.765625 L 1.234375 -21 L 19.203125 -21 Z M 19.203125 -17.578125 "/></g></g></g><g fill="#ffffff" fill-opacity="1"><g transform="translate(133.175727, 263.44595)"><g><path d="M 18.546875 -16.796875 L 7.4375 -16.796875 L 7.4375 -12.625 L 17.453125 -12.625 L 17.453125 -8.4375 L 7.4375 -8.4375 L 7.4375 -4.203125 L 18.875 -4.203125 L 18.875 0 L 2.09375 0 L 2.09375 -21 L 18.546875 -21 Z M 18.546875 -16.796875 "/></g></g></g><g fill="#ffffff" fill-opacity="1"><g transform="translate(153.387869, 263.44595)"><g><path d="M 2.09375 -21 L 12.03125 -21 C 14.382812 -21 16.253906 -20.523438 17.640625 -19.578125 C 19.035156 -18.628906 19.734375 -17.351562 19.734375 -15.75 C 19.734375 -14.644531 19.410156 -13.675781 18.765625 -12.84375 C 18.128906 -12.019531 17.253906 -11.445312 16.140625 -11.125 C 17.460938 -10.863281 18.507812 -10.253906 19.28125 -9.296875 C 20.0625 -8.335938 20.453125 -7.175781 20.453125 -5.8125 C 20.453125 -4.039062 19.726562 -2.628906 18.28125 -1.578125 C 16.832031 -0.523438 14.867188 0 12.390625 0 L 2.09375 0 Z M 7.40625 -16.921875 L 7.40625 -12.59375 L 11.734375 -12.59375 C 12.515625 -12.59375 13.132812 -12.785156 13.59375 -13.171875 C 14.050781 -13.566406 14.28125 -14.109375 14.28125 -14.796875 C 14.28125 -15.453125 14.050781 -15.96875 13.59375 -16.34375 C 13.132812 -16.726562 12.515625 -16.921875 11.734375 -16.921875 Z M 7.40625 -8.765625 L 7.40625 -4.109375 L 11.734375 -4.109375 C 12.734375 -4.109375 13.515625 -4.316406 14.078125 -4.734375 C 14.648438 -5.160156 14.9375 -5.742188 14.9375 -6.484375 C 14.9375 -7.179688 14.648438 -7.734375 14.078125 -8.140625 C 13.515625 -8.554688 12.734375 -8.765625 11.734375 -8.765625 Z M 7.40625 -8.765625 "/></g></g></g><g fill="#ffffff" fill-opacity="1"><g transform="translate(174.829541, 263.44595)"><g><path d="M 21 -21 L 21 -8.8125 C 21 -6.039062 20.140625 -3.835938 18.421875 -2.203125 C 16.703125 -0.578125 14.375 0.234375 11.4375 0.234375 C 8.46875 0.234375 6.109375 -0.578125 4.359375 -2.203125 C 2.609375 -3.835938 1.734375 -6.039062 1.734375 -8.8125 L 1.734375 -21 L 7.078125 -21 L 7.078125 -8.8125 C 7.078125 -7.414062 7.484375 -6.300781 8.296875 -5.46875 C 9.109375 -4.644531 10.160156 -4.234375 11.453125 -4.234375 C 12.734375 -4.234375 13.757812 -4.640625 14.53125 -5.453125 C 15.300781 -6.273438 15.6875 -7.394531 15.6875 -8.8125 L 15.6875 -21 Z M 21 -21 "/></g></g></g><g fill="#ffffff" fill-opacity="1"><g transform="translate(197.560711, 263.44595)"><g><path d="M 7.4375 -4.46875 L 16.34375 -4.46875 L 16.34375 0 L 2.09375 0 L 2.09375 -21 L 7.4375 -21 Z M 7.4375 -4.46875 "/></g></g></g><g fill="#ffffff" fill-opacity="1"><g transform="translate(214.354181, 263.44595)"><g><path d="M 12.0625 -21.1875 C 15.320312 -21.1875 18.03125 -20.171875 20.1875 -18.140625 C 22.351562 -16.109375 23.4375 -13.570312 23.4375 -10.53125 C 23.4375 -7.46875 22.347656 -4.90625 20.171875 -2.84375 C 18.003906 -0.789062 15.300781 0.234375 12.0625 0.234375 C 8.820312 0.234375 6.117188 -0.785156 3.953125 -2.828125 C 1.796875 -4.878906 0.71875 -7.445312 0.71875 -10.53125 C 0.71875 -13.59375 1.796875 -16.132812 3.953125 -18.15625 C 6.117188 -20.175781 8.820312 -21.1875 12.0625 -21.1875 Z M 12.125 -16.703125 C 10.476562 -16.703125 9.078125 -16.109375 7.921875 -14.921875 C 6.765625 -13.734375 6.1875 -12.257812 6.1875 -10.5 C 6.1875 -8.738281 6.769531 -7.253906 7.9375 -6.046875 C 9.101562 -4.835938 10.492188 -4.234375 12.109375 -4.234375 C 13.734375 -4.234375 15.109375 -4.835938 16.234375 -6.046875 C 17.367188 -7.253906 17.9375 -8.738281 17.9375 -10.5 C 17.9375 -12.257812 17.367188 -13.734375 16.234375 -14.921875 C 15.109375 -16.109375 13.738281 -16.703125 12.125 -16.703125 Z M 12.125 -16.703125 "/></g></g></g><g fill="#ffffff" fill-opacity="1"><g transform="translate(238.494805, 263.44595)"><g><path d="M 21.484375 0 L 16.765625 0 L 7.109375 -12.9375 L 7.109375 0 L 2.09375 0 L 2.09375 -21 L 6.8125 -21 L 16.5 -8.046875 L 16.5 -21 L 21.484375 -21 Z M 21.484375 0 "/></g></g></g></svg>